<svg height="512" viewBox="0 0 44 60" width="512" xmlns="http://www.w3.org/2000/svg"><g id="009---Russian-Doll" fill="none"><g id="Layer_4" transform="translate(1)"><path id="Shape" d="m32.59 57c-4.07 1.8-8.59 2-13.06 2-3.4696576-.0187036-6.9040687-.697441-10.12-2-8.63-3.92-13.12-17.44-2.41-34.08 2.29-3.57 2-6.42 2-9.52-.07563479-6.63998504 5.1448641-12.13524708 11.78-12.4 3.2205433-.05905326 6.3296146 1.17911087 8.6278595 3.43597977 2.2982448 2.2568689 3.5926819 5.34293559 3.5921405 8.56402023 0 4.7-.3 6.37 2.42 10.6 10.17 16.4 5.66 29.54-2.83 33.4z" fill="#fbbbfc"/><path id="Shape" d="m29.59 57c-6.76 3-17.65 2.63-23.12-1.8-4.11-3.35-5.76-8.71-5.73-13.86 0-6.58 2.72-12.9 6.27-18.41 2.29-3.57 2-6.42 2-9.52-.06242747-6.14867058 4.4184311-11.40194375 10.5-12.31 5.9938098.76026365 10.4876755 5.85816654 10.49 11.9 0 4.7-.3 6.37 2.42 10.6 10.17 16.4 5.66 29.54-2.83 33.4z" fill="#f2dcf2"/><path id="Shape" d="m41.2 43c-.4 6-3.1 11.48-8.61 14-4.07 1.8-8.59 2-13.06 2-3.4696576-.0187036-6.9040687-.697441-10.12-2-4.53-2.05-8.11-6.67-8.61-14h.2s2.82 3.87 18.45 4c5.28 0 13.1-.09 18.56-2.23 1.1273775-.334407 2.1545431-.9424616 2.99-1.77z" fill="#f2dcf2"/><path id="Shape" d="m41 43c-.8393793.8253216-1.8700446 1.4299785-3 1.76-.4499856 4.0421148-2.4066567 7.766217-5.48 10.43-3.52 2.81-8.52 3.66-13.05 3.81 4.45 0 8.79-.06 13.12-2 5.53-2.5 8.21-8 8.61-14z" fill="#fbbbfc"/><path id="Shape" d="m41.2 43h-.2s-3 4-20 4-20-4-20-4h-.2c-.33-3.66.41-8.72 3-14.37l.16.07c3.21426194 1.0869629 6.6249151 1.4689561 10 1.12l.04.18c-.5417484 1.6181214-.8777211 3.2979847-1 5 3.0416383 1.1207998 6.445319-.1555804 8-3 1.554681 2.8444196 4.9583617 4.1207998 8 3-.1222789-1.7020153-.4582516-3.3818786-1-5v-.17c3.3750849.3489561 6.7857381-.0330371 10-1.12l.16-.07c2.2309843 4.445728 3.2780183 9.3915862 3.04 14.36z" fill="#f2dcf2"/><path id="Shape" d="m29 35c-3.0416383 1.1207998-6.445319-.1555804-8-3-1.554681 2.8444196-4.9583617 4.1207998-8 3 .1222789-1.7020153.4582516-3.3818786 1-5v-.17c3.0141947-.2840015 5.6646848-2.1128398 7-4.83 1.3383486 2.7145417 3.9871767 4.5422331 7 4.83v.17c.5417484 1.6181214.8777211 3.2979847 1 5z" fill="#f995fc"/><path id="Shape" d="m21 21c-2.4654682.0003992-4.7934013-1.1360176-6.3096211-3.0801397-1.5162199-1.9441221-2.0513368-4.4787553-1.4503789-6.8698603 1.34.26 7.76 1.12 7.76-6.05 0 7.17 6.42 6.31 7.76 6.05.6009579 2.391105.065841 4.9257382-1.4503789 6.8698603-1.5162198 1.9441221-3.8441529 3.0805389-6.3096211 3.0801397z" fill="#f2dcf2"/><path id="Shape" d="m21 4.99999989c0 7.17000011-6.42 6.31000011-7.76 6.05000011.8939995-3.5570659 4.0923096-6.05059379 7.76-6.05000011z" fill="#f995fc"/><path id="Shape" d="m28.76 11.05c-1.34.26-7.76 1.12-7.76-6.05000011 3.6676904-.00059368 6.8660005 2.49293421 7.76 6.05000011z" fill="#f995fc"/><path id="Shape" d="m10 36.51c1.12 2.22.9 4.59-.48 5.29s-3.43-.52-4.55-2.74z" fill="#f2dcf2"/><path id="Shape" d="m32 36.51c-1.12 2.22-.9 4.59.48 5.29s3.43-.52 4.55-2.74z" fill="#f2dcf2"/><path id="Shape" d="m41.2 43h-.2c-.8421302.821724-1.8718428 1.425822-3 1.76.63869-5.2534501-.2283015-10.580246-2.5-15.36.9018169-.1969439 1.7902606-.450785 2.66-.76 2.2309843 4.445728 3.2780183 9.3915862 3.04 14.36z" fill="#fbbbfc"/></g><path id="Shape" d="m8.61 56.6c3.08 1.65 7.26 2.28 10.86 2.38l2.53.02c-3.5950317-.0484466-7.1379278-.8668249-10.39-2.4-5.35-2.87-7.8-8.73-7.87-14.77-.16-6.61 2.69-13.35 6.27-18.91 4-6.21 0-9.85 3.85-16.1.7897952-1.28844484 1.8061604-2.42338597 3-3.35 1.6366433-1.28251284 3.58817-2.10111786 5.65-2.37-3.0881594-.41022363-6.2110812.4444328-8.66 2.37-1.1938396.92661403-2.2102048 2.06155516-3 3.35-3.85 6.25.15 9.89-3.85 16.1-3.58 5.56-6.43 12.3-6.27 18.91.08 6.04 2.53 11.9 7.88 14.77z" fill="#fff" transform="translate(1)"/><g id="Layer_2" transform="translate(0 -1)"><path id="Shape" d="m9 16.31h2v1c0 .36 0 .72-.05 1.08-.0634292.7224047-.1871943 1.4382352-.37 2.14-.3682355 1.3921869-.95195649 2.718212-1.73 3.93l-1.68-1.08c.66463574-1.0436292 1.16386943-2.183771 1.48-3.38.14857291-.5913249.25220189-1.1930416.31-1.8 0-.31 0-.61 0-.91z" fill="#fff"/><g fill="#29c5ff"><path id="Shape" d="m19 14c-.5522847 0-1 .4477153-1 1s.4477153 1 1 1 1-.4477153 1-1-.4477153-1-1-1z"/><path id="Shape" d="m9.64 21.28c-.55228475 0-1-.4477153-1-1s.44771525-1 1-1c.5522847 0 1 .4477153 1 1s-.4477153 1-1 1z"/><path id="Shape" d="m6.84 57c.96582303.7686382 2.02819932 1.4074088 3.16 1.9 3.21 1.43 7 2.1 12 2.1s8.79-.67 12-2.1c1.133527-.4892358 2.196331-1.1282636 3.16-1.9 3.91-3.18 6.14-8.52 6.1-14.63 0-5.83-2-11.8-6-18.26l-.54-.85c-1.1360859-1.7755301-1.7334964-3.8421537-1.72-5.95v-3.31c.0005948-3.4898028-1.4019402-6.83330159-3.8920693-9.27829246-2.4901292-2.44499088-5.8587227-3.78613472-9.3479307-3.72170754-3.8186983.10636182-7.3935033 1.90108975-9.76 4.9-1.1842516 1.46963024-2.04316833 3.17383013-2.52 5-.25908177.8965871-.42002535 1.8186597-.48 2.75-.07 1 0 1.77 0 2.66 0 .5522847.44771525 1 1 1 .5522847 0 1-.4477153 1-1-.0976045-1.6478373.0404539-3.3011712.41-4.91.4034209-1.55559405 1.1328711-3.00767709 2.14-4.26 2.0029099-2.53156247 5.0232601-4.04722911 8.25-4.14 2.9518786-.05367943 5.8014278 1.08150496 7.9077883 3.1502519s3.2926997 4.8973815 3.2922117 7.8497481v3.31c-.019789 2.4770353.6745756 4.9073114 2 7l.52.83c.83 1.33 1.54 2.63 2.19 3.92-2.89.82-11.86 2.78-14.86-3.48-.1670864-.3449903-.5166774-.5641101-.9-.5641101s-.7329136.2191198-.9.5641101c-3 6.24-12 4.29-14.86 3.48.24-.48.48-1 .75-1.45.55-1 1.18-2.08 1.86-3.14.29741164-.4640673.16323277-1.0812901-.3-1.38-.46406734-.2974116-1.08129014-.1632328-1.38.3-.71 1.11-1.37 2.2-1.94 3.26-2.74998182 4.777097-4.27530212 10.1603784-4.44 15.67-.04 6.12 2.19 11.46 6.1 14.68zm29.06-1.59c-.8293544.6737565-1.7438972 1.2352589-2.72 1.67-2.94 1.31-6.49 1.92-11.18 1.92s-8.24-.61-11.18-1.92c-.97372027-.4351264-1.88780045-.9929842-2.72-1.66-1.78391966-1.5159916-3.15919636-3.4551318-4-5.64.09114559-.0698708.16617913-.1585468.22-.26.25974882-.4835179.08122663-1.0860303-.4-1.35l-.45-.27c-.18890063-.6249217-.34577149-1.2590805-.47-1.9 2.41 1.3 7.73 3 19 3s16.55-1.72 19-3c-.1038.6465796-.2406459 1.2874189-.41 1.92l-.45.27c-.4812266.2639697-.6597488.8664821-.4 1.35.0538209.1014532.1288544.1901292.22.26-.8541251 2.1848962-2.2515192 4.1157782-4.06 5.61zm-13.9-27.41c1.5010419 1.9898849 3.7104856 3.3255778 6.17 3.73.3748508 1.151398.6524902 2.3322017.83 3.53-2.427789.5829655-4.9412265-.5583824-6.1-2.77-.1801377-.3035865-.5069924-.489706-.86-.489706s-.6798623.1861195-.86.489706c-1.1667034 2.2465269-3.7266857 3.3939624-6.18 2.77.1632915-1.2173818.4309437-2.4184711.8-3.59 2.4601377-.3849241 4.6790764-1.6983926 6.2-3.67zm-16.62 2.89c2.15258201.6410068 4.3760638 1.0138263 6.62 1.11h1.7c-.3909207 1.3009063-.6259009 2.6436499-.7 4-.0003967.4098038.249279.7783727.63.93 2.9755094 1.1293942 6.3398711.2410741 8.37-2.21 1.3954427 1.7180608 3.496706 2.7079729 5.71 2.69.908537.0037567 1.8100788-.1589275 2.66-.48.380721-.1516273.6303967-.5201962.63-.93-.0659145-1.3549709-.2907892-2.6975062-.67-4 .35 0 .7.05 1.07.05h.6c2.2338538-.0912844 4.4476036-.4608026 6.59-1.1 1.659983 3.5938407 2.5588053 7.4921418 2.64 11.45v1c-.04.01-3.23 3.6-19.23 3.6s-19.19-3.59-19.2-3.6c0-.35 0-.69 0-1 .05408041-3.9738837.93261979-7.8932591 2.58-11.51z"/><path id="Shape" d="m22 23c4.9705627 0 9-4.0294373 9-9-.004568-.7110349-.0918209-1.4191257-.26-2.11 0 0 0 0 0-.06-1.0178646-3.98469996-4.607351-6.77253507-8.72-6.77253507s-7.7021354 2.78783511-8.72 6.77253507v.06c-.1816695.6892826-.2823493 1.3973972-.3 2.11 0 4.9705627 4.0294373 9 9 9zm0-2c-3.8659932 0-7-3.1340068-7-7 .0014074-.2773751.0180993-.5544619.05-.83 2.0058356.281096 4.0424255-.2280515 5.68-1.42.5087328-.4170266.9388295-.9216283 1.27-1.49.3311705.5683717.7612672 1.0729734 1.27 1.49 1.3368217 1.0137206 2.983476 1.5331587 4.66 1.47.38 0 .71 0 1-.05.0385887.2751678.0619576.552256.07.83 0 3.8659932-3.1340068 7-7 7zm6.41-9.8c-1.3686872.1484198-2.744548-.2070998-3.87-1-.8794175-.8065151-1.4042407-1.9280551-1.46-3.12 2.3641415.37190662 4.3744367 1.92583089 5.33 4.12zm-7.49-4.11c-.0557593 1.1919449-.5805825 2.3134849-1.46 3.12-1.125452.7929002-2.5013128 1.1484198-3.87 1 .9555633-2.19416911 2.9658585-3.74809338 5.33-4.12z"/><path id="Shape" d="m36.78 49.45c-.53.15-1.12.3-1.78.44-.5372416.1150218-.8810699.6419275-.77 1.18.0964736.4731232.5172392.8097357 1 .8h.21c.7-.14 1.33-.3 1.9-.46.2578608-.0780738.4733088-.2568938.5975477-.4959595.1242388-.2390657.1467562-.5181488.0624523-.7740405-.1504801-.5241937-.6932179-.8311519-1.22-.69z"/><path id="Shape" d="m25.76 50.93h-1.87c-.5522847 0-1 .4477153-1 1s.4477153 1 1 1h1.92c.5522847 0 1-.4477153 1-1 .0003429-.2741113-.1118495-.5363464-.310344-.7253888-.1984946-.1890423-.4658874-.288317-.739656-.2746112z"/><path id="Shape" d="m9 49.89c-.65-.14-1.25-.28-1.78-.43-.35247527-.1280238-.74695159-.0480823-1.02177628.2070653-.27482468.2551477-.38379842.6426098-.2822648 1.0036082s.39650633.6348475.76404108.7093265c.57.16 1.2.32 1.9.47h.21c.55228473.0579899 1.04701004-.3427153 1.10499994-.895s-.34271522-1.0470101-.89499994-1.105z"/><path id="Shape" d="m14.53 50.69c-.65-.06-1.27-.12-1.86-.2-.3572656-.0428719-.7102645.1081118-.9260254.396077-.2157609.2879651-.2615047.6691629-.12 1 .1415047.330837.4487598.5610511.8060254.603923.6.07 1.24.14 1.91.2h.1c.3572656.016077.6959696-.1596663.8885254-.4610289s.2097098-.6825604.045-1c-.1647097-.3174395-.4862598-.5228941-.8435254-.5389711z"/><path id="Shape" d="m31.35 50.49-1.86.2c-.5522847.0248529-.9798527.4927153-.9549999 1.045s.4927152.9798528 1.0449999.955h.1c.67-.06 1.31-.13 1.91-.2.2642122-.0324346.5045886-.1688737.6678869-.3790968.1632982-.2102231.2360399-.4768785.2021131-.7409032-.030086-.2640713-.1640578-.5053027-.3723271-.670417-.2082692-.1651144-.4737008-.2405271-.7376729-.209583z"/><path id="Shape" d="m20.13 51h-1.87c-.5522847 0-1 .4477153-1 1s.4477153 1 1 1h1.92c.5522847 0 1-.4477153 1-1s-.4477153-1-1-1z"/><path id="Shape" d="m7.66 43.38c.59978839.3805872 1.29010784.5945862 2 .62.4521399.0043181.8984629-.1021128 1.3-.31 1.91-1 2.31-3.88.92-6.63-.2512896-.4942949-.8557051-.6912896-1.35-.44s-.69128956.8557051-.44 1.35c.91 1.78.73 3.55 0 3.94-.4777748.1545957-1.00099601.0649007-1.4-.24-.77408066-.5125916-1.39584799-1.2241698-1.8-2.06-.1440974-.3460386-.46961514-.5824323-.84325912-.6123817-.37364399-.0299494-.73265995.1515756-.93003682.4702434-.19737686.3186678-.19996479.7209575-.00670406 1.0421383.56591747 1.1756203 1.44913926 2.1696777 2.55 2.87z"/><path id="Shape" d="m33 43.69c.4015371.2078872.8478601.3143181 1.3.31.7098922-.0254138 1.4002116-.2394128 2-.62 1.1008607-.7003223 1.9840825-1.6943797 2.55-2.87.2013504-.4835272-.0045141-1.0404963-.4719378-1.2768341s-1.0380149-.0719586-1.3080622.3768341c-.404152.8358302-1.0259193 1.5474084-1.8 2.06-.399004.3049007-.9222252.3945957-1.4.24-.77-.39-.95-2.16 0-3.94.2512896-.4942949.0542949-1.0987104-.44-1.35s-1.0987104-.0542949-1.35.44c-1.39 2.75-.99 5.67.92 6.63z"/><path id="Shape" d="m25 14c-.5522847 0-1 .4477153-1 1s.4477153 1 1 1 1-.4477153 1-1-.4477153-1-1-1z"/></g></g></g></svg>