<svg height="512" viewBox="0 0 60 52" width="512" xmlns="http://www.w3.org/2000/svg"><g id="Page-1" fill="none" fill-rule="evenodd"><g id="017---Heart-Jigsaw" fill-rule="nonzero" transform="translate(-1)"><path id="Shape" d="m60.02 17.29c0 10.89-9.33 21.39-29.0200104 33.71l.0000104-20.48c.0038456-1.3901616 1.1298384-2.5161544 2.52-2.52.7582517.0163055 1.4726151.3589084 1.96.94 1.6441459 1.8911982 4.2904826 2.5613912 6.6366076 1.6807415s3.8978344-3.126636 3.8914498-5.6325901c-.0063846-2.505954-1.5695183-4.7440044-3.9201002-5.6126879-2.3505819-.8686836-4.9934693-.1850149-6.6279572 1.7145365-.4638642.5631214-1.1505715.895517-1.88.91h-.2c-.6317856.0018664-1.2382329-.2482834-1.6849747-.6950253-.4467419-.4467418-.6968917-1.0531891-.6950253-1.6849747v-11.12c3.3695654-4.66428171 8.7561452-7.4485235 14.51-7.5 8.59 0 14.51 7.5 14.51 16.29z" fill="#f995fc"/><path id="Shape" d="m45.51 1c-.549 0-1.078.031-1.6.077 7.823.769 13.107 7.911 13.107 16.213 0 10.32-8.385 20.291-26.02 31.791v1.919c19.693-12.32 29.023-22.82 29.023-33.71 0-8.79-5.92-16.29-14.51-16.29z" fill="#f874fc"/><path id="Shape" d="m40 31c-1.7337373-.0004173-3.3823073-.7517568-4.52-2.06-.4873849-.5810916-1.2017483-.9236945-1.96-.94-1.3901616.0038456-2.5161544 1.1298384-2.52 2.52v20.48c-19.69-12.32-29.02-22.82-29.02-33.71 0-8.79 5.92-16.29 14.51-16.29 5.7538548.0514765 11.1404346 2.83571829 14.51 7.5v11.12c-.0018664.6317856.2482834 1.2382329.6950253 1.6849747.4467418.4467419 1.0531891.6968917 1.6849747.6950253h.2c.7294285-.014483 1.4161358-.3468786 1.88-.91 1.3576861-1.5890523 3.4480316-2.3515921 5.51-2.01 3.0808831.5081909 5.2569891 3.2944228 5.003729 6.4066499s-2.8512161 5.5099658-5.973729 5.5133501z" fill="#f2dcf2"/><path id="Shape" d="m31 51c.508-.318 1-.634 1.5-.95-18.661-11.912-27.52-22.15-27.52-32.76 0-8.3 5.284-15.444 13.107-16.213-.519-.046-1.048-.077-1.597-.077-8.59 0-14.51 7.5-14.51 16.29 0 10.89 9.33 21.39 29.02 33.71z" fill="#fff"/><path id="Shape" d="m4.537 24.682-1.846.77c-1.11090233-2.5793063-1.69175072-5.35568-1.708-8.164h2c.0157688 2.5440626.54429901 5.0588325 1.554 7.394z" fill="#fff"/><g fill="#29c5ff"><path id="Shape" d="m2.431 22.26c-.55228475.0027614-1.00223858-.4427153-1.005-.995s.44271525-1.0022386.995-1.005h.01c.55228475 0 1 .4477153 1 1s-.44771525 1-1 1z"/><path id="Shape" d="m45.509 0c-5.6127073.01839455-10.9276623 2.52732877-14.509 6.849-3.5813377-4.32167123-8.8962927-6.83060545-14.509-6.849-8.842 0-15.509 7.432-15.509 17.288 0 .5522847.44771525 1 1 1s1-.4477153 1-1c0-8.716 5.808-15.288 13.509-15.288 5.3142301.06660045 10.2998864 2.58360215 13.509 6.82v10.8c.0022041 1.8658087 1.5141913 3.3777959 3.38 3.38h.2c1.0227238-.0124195 1.9883622-.4734835 2.641-1.261 1.1339448-1.3255079 2.8796882-1.9596682 4.6-1.671 2.1769753.3571258 3.8626326 2.098784 4.1484449 4.2862646.2858124 2.1874807-.8957726 4.3037677-2.9079103 5.2082355-2.0121377.9044679-4.3792548.3833435-5.8255346-1.2825001-.6789961-.7975739-1.6686684-1.2639879-2.716-1.28-1.9424448.0038513-3.5161487 1.5775552-3.52 3.52v18.645c-4.8416576-3.0460185-9.4755345-6.4104317-13.871-10.071-2.3832653-2.0358387-4.6083411-4.2498827-6.656-6.623-2.03647498-2.326765-3.70142774-4.9540578-4.936-7.789-.13370025-.3352061-.43763982-.5723691-.79529333-.6205647-.35765351-.0481957-.71352941.1000538-.93119079.387912-.21766139.2878583-.26333712.6706628-.11951588 1.0016527 1.31241915 3.0227216 3.08361114 5.8247197 5.251 8.307 2.1177981 2.4560234 4.4194447 4.7473067 6.885 6.854 4.941682 4.1105855 10.1688077 7.8653473 15.642 11.236.1611921.0950025.3439533.1473183.531.152.1855051-.01033.3663063-.0622805.529-.152 20.394-12.765 29.488-23.424 29.488-34.56.001-9.856-6.666-17.288-15.508-17.288zm-13.5090835 49.183.0000835-18.663c.0032889-.8381067.6818933-1.5167111 1.52-1.52.4696306.0181629.909.2365736 1.207.6 1.9183351 2.2053467 5.0050096 2.9865807 7.7415026 1.9593662s4.546654-3.6466043 4.5399558-6.5695342c-.0066981-2.9229298-1.828845-5.5339959-4.5700171-6.548658-2.7411721-1.014662-5.8242337-.2192895-7.7324413 1.994826-.2777147.3399904-.6874051.5451995-1.126.564h-.2c-.3672278.0040581-.720599-.1400308-.9802841-.3997159s-.403774-.6130563-.3997159-.9802841v-10.8c3.2091136-4.23639785 8.1947699-6.75339955 13.509-6.82 7.7 0 13.509 6.572 13.509 15.288 0 10.098-8.352 19.974-27.0180835 31.895z"/><path id="Shape" d="m7 22c-.4686077-.0000804-.87431214-.3255585-.976-.783-2.124-9.559 4.153-13.87 4.421-14.049.4592248-.30707032 1.0804297-.18372477 1.3875.2755s.1837248 1.08042968-.2755 1.3875c-.237.161-5.395 3.787-3.58 11.952.05747808.2589886.00968948.5302029-.13284744.7539484-.14253693.2237455-.36813962.3816835-.62715256.4390516-.07126387.0157557-.14401547.023802-.217.024z"/><circle id="Oval" cx="14" cy="6" r="1"/></g></g></g></svg>