<svg height="512" viewBox="0 0 57 60" width="512" xmlns="http://www.w3.org/2000/svg"><g id="Page-1" fill="none" fill-rule="evenodd"><g id="046---Love-Growth" fill-rule="nonzero"><path id="Shape" d="m29 4.9c1.4336629-1.99035722 3.5854211-3.34488902 6-3.777 2.2406156-.30887122 4.5063855.35496467 6.2260606 1.82414039 1.719675 1.46917572 2.729159 3.60349845 2.7739394 5.86485961.231 5.965-5.227 9.658-13.715 16.726-.7408565.6154487-1.8151435.6154487-2.556 0-8.495-7.068-13.953-10.761-13.722-16.726.0447804-2.26136116 1.0542644-4.39568389 2.7739394-5.86485961 1.7196751-1.46917572 3.985445-2.13301161 6.2260606-1.82414039 2.4120286.43380736 4.5610034 1.78816704 5.993 3.777z" fill="#f2dcf2"/><path id="Shape" d="m35 1.123c-.1.016-.189.04-.284.059 3.5839651.82100787 6.163914 3.95506453 6.281 7.63.229 5.912-5.135 9.6-13.493 16.542l.222.184c.7408565.6154487 1.8151435.6154487 2.556 0 8.484-7.068 13.942-10.761 13.711-16.726-.0450265-2.25996051-1.053557-4.3929934-2.7716067-5.86192301s-3.9818864-2.13376525-6.2213933-1.82707699z" fill="#fbbbfc"/><rect id="Rectangle-path" height="5" rx="2" width="26" x="16" y="41" fill="#f2dcf2"/><path id="Shape" d="m40 41h-3c1.1045695 0 2 .8954305 2 2v1c0 1.1045695-.8954305 2-2 2h3c1.1045695 0 2-.8954305 2-2v-1c0-1.1045695-.8954305-2-2-2z" fill="#fbbbfc"/><path id="Shape" d="m19 46h20l-2.642 11.45c-.2095447.9074298-1.0176902 1.5501315-1.949 1.55h-10.818c-.9313098.0001315-1.7394553-.6425702-1.949-1.55z" fill="#f995fc"/><path id="Shape" d="m36 46-2.642 11.45c-.2095447.9074298-1.0176902 1.5501315-1.949 1.55h3c.9313098.0001315 1.7394553-.6425702 1.949-1.55l2.642-11.45z" fill="#f874fc"/><path id="Shape" d="m28.98 35.41c-.0007292.0076786-.0042946.0148095-.01.02-1.57 1.78-5.08 2.12-8.47.63-3.194-1.4-5.28-3.993-5.281-6.266.0020102-.2571683.1106503-.5019706.3-.676 1.68-1.542 5-1.786 8.2-.378 3.381 1.48 5.511 4.3 5.261 6.67z" fill="#f2dcf2"/><path id="Shape" d="m29.02 35.41c.0007292.0076786.0042946.0148095.01.02 1.57 1.78 5.08 2.12 8.47.63 3.194-1.4 5.28-3.993 5.281-6.266-.0020102-.2571683-.1106503-.5019706-.3-.676-1.68-1.542-5-1.786-8.2-.378-3.381 1.48-5.511 4.3-5.261 6.67z" fill="#f2dcf2"/><path id="Shape" d="m42.484 29.118c-1.5702088-1.1839254-3.5838525-1.6122823-5.5-1.17.9250361.1527895 1.7900533.5576176 2.5 1.17.1893497.1740294.2979898.4188317.3.676 0 2.273-2.087 4.867-5.281 6.266-.8511625.3757807-1.7456622.6445001-2.663.8 1.9252578.2971081 3.8953831.0187927 5.663-.8 3.194-1.4 5.28-3.993 5.281-6.266-.0020102-.2571683-.1106503-.5019706-.3-.676z" fill="#fbbbfc"/><circle id="Oval" cx="53" cy="7" r="3" fill="#f995fc"/><circle id="Oval" cx="7" cy="37" r="3" fill="#f995fc"/><path id="Shape" d="m7 40c.52810593-.0027453 1.0459153-.1463511 1.5-.416-.92735392-.5298262-1.49968025-1.5159639-1.49968025-2.584s.57232633-2.0541738 1.49968025-2.584c-.4540847-.2696489-.97189407-.4132547-1.5-.416-1.65685425 0-3 1.3431458-3 3s1.34314575 3 3 3z" fill="#fff"/><path id="Shape" d="m27.722 25.538c.7408565.6154487 1.8151435.6154487 2.556 0l.222-.184c-8.358-6.946-13.722-10.63-13.493-16.542.117086-3.67493547 2.6970349-6.80899213 6.281-7.63-.095-.019-.186-.043-.284-.059-2.2406156-.30887122-4.5063855.35496467-6.2260606 1.82414039-1.719675 1.46917572-2.729159 3.60349845-2.7739394 5.86485961-.228 5.965 5.23 9.658 13.718 16.726z" fill="#fff"/><path id="Shape" d="m20.5 36.06c1.7675999.8188505 3.7377425 1.0971683 5.663.8-.9173707-.155359-1.8118876-.4240835-2.663-.8-4.693-2.055-5.931-6.074-4.984-6.942.7099467-.6123824 1.5749639-1.0172105 2.5-1.17-1.9161451-.442565-3.9299085-.0141826-5.5 1.17-.947.868.291 4.887 4.984 6.942z" fill="#fff"/><path id="Shape" d="m18 46h1l2.642 11.45c.2095447.9074298 1.0176902 1.5501315 1.949 1.55h3c-.9313098.0001315-1.7394553-.6425702-1.949-1.55l-2.642-11.45h-1c-1.1045695 0-2-.8954305-2-2v-1c0-1.1045695.8954305-2 2-2h-3c-1.1045695 0-2 .8954305-2 2v1c0 1.1045695.8954305 2 2 2z" fill="#fff"/><path id="Shape" d="m20.912 21.2 1.3-1.523c2.014 1.711 4.1 3.381 6.153 5.095l-1.28 1.537c-2.044-1.709-4.122-3.371-6.173-5.109z" fill="#fff"/><g fill="#29c5ff"><path id="Shape" d="m15.649 16.028c1.5850471 1.8882037 3.3474403 3.6201241 5.263 5.172.2018821.1737557.465054.2592175.7305039.237222.2654499-.0219954.5109662-.1496078.6814961-.354222.3550901-.4204649.303695-1.0488248-.115-1.406-1.8142867-1.4670208-3.4848199-3.1034001-4.989-4.887-1.4464044-1.6381419-2.2350963-3.7537884-2.214-5.939.0766457-2.07519288 1.0415271-4.01733997 2.649-5.332 1.4418484-1.20011764 3.3339472-1.71465175 5.185-1.41 2.1327808.39437641 4.0351595 1.58658139 5.32 3.334.1843004.28501495.5005885.45709072.84.457.337385.00017597.652113-.16978466.837-.452 1.2846751-1.74993675 3.1883566-2.94407399 5.323-3.339 1.8511913-.3073727 3.7444102.20746601 5.185 1.41 1.6074729 1.31466003 2.5723543 3.25680712 2.649 5.332.185 4.792-3.867 8.118-10.581 13.629-.8826667.7246667-1.8073333 1.488-2.774 2.29-.1796477.1488614-.4056912.2302229-.639.23-.2324017-.0007565-.4572834-.0824352-.636-.231-.2735322-.2375881-.6541795-.3086408-.9950033-.18573-.3408239.1229107-.5885077.4205574-.64744.7780416-.0589322.3574842.0801062.718883.3634433.9446884.2727268.2269126.5835413.4036503.918.522v3.7c-1.0934298-1.1591362-2.4133971-2.0812072-3.878-2.709-3.507-1.542-7.237-1.317-9.284.558-.3941812.3633549-.618593.8748979-.619 1.411 0 2.756 2.364 5.642 5.879 7.181 1.4636564.6598087 3.047625 1.0107805 4.653 1.031 1.1170707.0170104 2.2245365-.2085086 3.246-.661v2.661h-10c-1.6568542 0-3 1.3431458-3 3v1c0 1.6568542 1.3431458 3 3 3h.2l2.464 10.675c.3095814 1.36559 1.5267782 2.3324443 2.927 2.325h10.818c1.3987268.0055639 2.6137424-.9608785 2.923-2.325l2.468-10.675h.2c1.6568542 0 3-1.3431458 3-3v-1c0-1.6568542-1.3431458-3-3-3h-10v-2.661c1.0217902.4525723 2.1295991.6780918 3.247.661 1.6048164-.0185876 3.1886487-.3671464 4.653-1.024 3.516-1.54 5.879-4.426 5.88-7.182-.0002746-.5368327-.2255179-1.0489802-.621-1.412-2.044-1.875-5.772-2.1-9.281-.558-1.464552.6283372-2.7844782 1.5507199-3.878 2.71v-3.7c.3344587-.1183497.6452732-.2950874.918-.522.962-.8 1.8836667-1.5603333 2.765-2.281 6.945-5.7 11.533-9.468 11.309-15.254-.100009-2.64723181-1.3325213-5.12391139-3.384-6.8-1.8821628-1.57232332-4.3570711-2.24437633-6.776-1.84-2.2405951.39106114-4.2901085 1.50894557-5.832 3.181-1.5418915-1.67205443-3.5914049-2.78993886-5.832-3.181-2.4175641-.40616229-4.8920303.26248406-6.776 1.831-2.0514787 1.67608861-3.283991 4.15276819-3.384 6.8-.0395534 2.6619506.9003291 5.2456489 2.641 7.26zm19.734 41.2c-.1031236.4543993-.5080511.7761794-.974.774h-10.818c-.4659489.0021794-.8708764-.3196007-.974-.774l-1.437-6.228h7.82c.5522847 0 1-.4477153 1-1s-.4477153-1-1-1h-8.281l-.462-2h17.486zm5.617-14.228v1c0 .5522847-.4477153 1-1 1h-22c-.5522847 0-1-.4477153-1-1v-1c0-.5522847.4477153-1 1-1h22c.5522847 0 1 .4477153 1 1zm-20.1-7.856c-2.713-1.188-4.681-3.438-4.71-5.289.9361119-.7378878 2.1100026-1.1074855 3.3-1.039 1.3202643.0159302 2.6233124.3017909 3.829.84 2.714 1.188 4.655 3.424 4.682 5.326v.008c-1.411 1.268-4.379 1.35-7.101.154zm13.782-5.489c2.708-1.189 5.7-1.105 7.1.139 0 1.912-1.969 4.162-4.683 5.351s-5.689 1.111-7.099-.155v-.008c.027-1.902 1.968-4.139 4.683-5.327z"/><path id="Shape" d="m24.655 23.993c-.3572656.0016077-.6882503-.1875056-.8682755-.4961029-.1800251-.3085972-.1817405-.6897951-.0045-1 .1772406-.3102049.5065099-.5022894.8637755-.5038971h.009c.5522847 0 1 .4477153 1 1s-.4477153 1-1 1z"/><path id="Shape" d="m11 20c0-.5522847-.4477153-1-1-1-.55228475 0-1 .4477153-1 1v9c0 .5522847.44771525 1 1 1 .5522847 0 1-.4477153 1-1z"/><path id="Shape" d="m4 26v-9c0-.5522847-.44771525-1-1-1s-1 .4477153-1 1v9c0 .5522847.44771525 1 1 1s1-.4477153 1-1z"/><path id="Shape" d="m49 29v-9c0-.5522847-.4477153-1-1-1s-1 .4477153-1 1v9c0 .5522847.4477153 1 1 1s1-.4477153 1-1z"/><path id="Shape" d="m56 17c0-.5522847-.4477153-1-1-1s-1 .4477153-1 1v9c0 .5522847.4477153 1 1 1s1-.4477153 1-1z"/><path id="Shape" d="m5 2c-.55228475 0-1 .44771525-1 1v2c0 .55228475.44771525 1 1 1s1-.44771525 1-1v-2c0-.55228475-.44771525-1-1-1z"/><path id="Shape" d="m4 11c0 .5522847.44771525 1 1 1s1-.4477153 1-1v-2c0-.55228475-.44771525-1-1-1s-1 .44771525-1 1z"/><path id="Shape" d="m9 6h-2c-.55228475 0-1 .44771525-1 1s.44771525 1 1 1h2c.55228475 0 1-.44771525 1-1s-.44771525-1-1-1z"/><path id="Shape" d="m3 6h-2c-.55228475 0-1 .44771525-1 1s.44771525 1 1 1h2c.55228475 0 1-.44771525 1-1s-.44771525-1-1-1z"/><path id="Shape" d="m52 33c0-.5522847-.4477153-1-1-1s-1 .4477153-1 1v2c0 .5522847.4477153 1 1 1s1-.4477153 1-1z"/><path id="Shape" d="m51 38c-.5522847 0-1 .4477153-1 1v2c0 .5522847.4477153 1 1 1s1-.4477153 1-1v-2c0-.5522847-.4477153-1-1-1z"/><path id="Shape" d="m53 38h2c.5522847 0 1-.4477153 1-1s-.4477153-1-1-1h-2c-.5522847 0-1 .4477153-1 1s.4477153 1 1 1z"/><path id="Shape" d="m46 37c0 .5522847.4477153 1 1 1h2c.5522847 0 1-.4477153 1-1s-.4477153-1-1-1h-2c-.5522847 0-1 .4477153-1 1z"/><path id="Shape" d="m53 3c-2.209139 0-4 1.790861-4 4s1.790861 4 4 4 4-1.790861 4-4c0-1.06086596-.4214274-2.07828161-1.1715729-2.82842712-.7501455-.75014552-1.7675611-1.17157288-2.8284271-1.17157288zm0 6c-1.1045695 0-2-.8954305-2-2s.8954305-2 2-2 2 .8954305 2 2c0 .53043298-.2107137 1.03914081-.5857864 1.41421356-.3750728.37507276-.8837806.58578644-1.4142136.58578644z"/><path id="Shape" d="m7 41c2.209139 0 4-1.790861 4-4s-1.790861-4-4-4-4 1.790861-4 4 1.790861 4 4 4zm0-6c1.1045695 0 2 .8954305 2 2s-.8954305 2-2 2-2-.8954305-2-2 .8954305-2 2-2z"/><path id="Shape" d="m18 11c-.5522847 0-1-.4477153-1-1 0-2.253.645-3.924 1.916-4.966 1.2277167-.91291337 2.7773131-1.27969458 4.284-1.014.5248389.12242592.8582565.63873941.7539124 1.16747021-.1043442.52873081-.6089124.87966921-1.1409124.79352979-.9245646-.15157107-1.8716195.06722878-2.636.609-.8796909.90521328-1.3110307 2.15488927-1.177 3.41 0 .2652165-.1053568.5195704-.2928932.7071068s-.4418903.2928932-.7071068.2928932z"/></g></g></g></svg>