<svg height="512" viewBox="0 0 60 53" width="512" xmlns="http://www.w3.org/2000/svg"><g id="Page-1" fill="none" fill-rule="evenodd"><g id="005---Favourite" fill-rule="nonzero" transform="translate(-1 -1)"><path id="Shape" d="m50.52 26.39c-.6463138.8115535-1.3733775 1.5553698-2.17 2.22l-4.16-8.84c-.2075623-.4719538-.6744203-.7766454-1.19-.7766454s-.9824377.3046916-1.19.7766454l-4.22 8.97c-.1826964.4025095-.5539522.687514-.99.76l-9.47 1.44c-.5020968.0906244-.9130279.4512575-1.0680712.9373394-.1550434.4860818-.0288208 1.0180484.3280712 1.3826606l6.88 7.03c.3012263.3218647.4376721.7643916.37 1.2l-.18 1.12c-1.26 1.18-2.62 2.47-4.09 3.85-.7714606.7199364-1.9685394.7199364-2.74 0-21.32-20.1-20.38-19.07-21.15-20.07-8.31-9.87-.79-24.39 12.53-24.39 3.5993516-.02003574 7.1069158 1.13510803 9.99 3.29 2.8830842-2.15489197 6.3906484-3.31003574 9.99-3.29 13.32 0 20.84 14.52 12.53 24.39z" fill="#f2dcf2"/><path id="Shape" d="m41.19 19.77c-.2075623-.4719538-.6744203-.7766454-1.19-.7766454s-.9824377.3046916-1.19.7766454l-4.22 8.97c-.1826964.4025095-.5539522.687514-.99.76l-9.47 1.44c-.5020968.0906244-.9130279.4512575-1.0680712.9373394-.1550434.4860818-.0288208 1.0180484.3280712 1.3826606l6.88 7.03c.3012263.3218647.4376721.7643916.37 1.2l-.18 1.12c-1.221 1.144-2.541 2.4-3.96 3.727l.13.123c.7714606.7199364 1.9685394.7199364 2.74 0 1.47-1.38 2.83-2.67 4.09-3.85l.18-1.12c.0676721-.4356084-.0687737-.8781353-.37-1.2l-6.88-7.03c-.356892-.3646122-.4831146-.8965788-.3280712-1.3826606.1550433-.4860819.5659744-.846715 1.0680712-.9373394l9.47-1.44c.4360478-.072486.8073036-.3574905.99-.76l3.91-8.311z" fill="#fbbbfc"/><path id="Shape" d="m37.99 2c-.5 0-1 .027-1.493.07 12.365 1.047 19.013 14.83 11.023 24.32l-.134.172.964 2.048c.7966225-.6646302 1.5236862-1.4084465 2.17-2.22 8.31-9.87.79-24.39-12.53-24.39z" fill="#fbbbfc"/><path id="Shape" d="m52.73 40.29c-.3012263.3218647-.4376721.7643916-.37 1.2l1.62 9.91c.0966542.5035306-.1029368 1.0180144-.5138806 1.3246253-.4109438.306611-.9609639.3514224-1.4161194.1153747l-8.43-4.66c-.3867035-.2098286-.8532965-.2098286-1.24 0l-8.43 4.66c-.4551555.2360477-1.0051756.1912363-1.4161194-.1153747-.4109438-.3066109-.6105348-.8210947-.5138806-1.3246253l1.44-8.79.18-1.12c.0676721-.4356084-.0687737-.8781353-.37-1.2l-6.88-7.03c-.356892-.3646122-.4831146-.8965788-.3280712-1.3826606.1550433-.4860819.5659744-.846715 1.0680712-.9373394l9.47-1.44c.4360478-.072486.8073036-.3574905.99-.76l4.22-8.97c.2075623-.4719538.6744203-.7766454 1.19-.7766454s.9824377.3046916 1.19.7766454l4.16 8.84.06.13c.1826964.4025095.5539522.687514.99.76l9.47 1.44c.5020968.0906244.9130279.4512575 1.0680712.9373394.1550434.4860818.0288208 1.0180484-.3280712 1.3826606z" fill="#f995fc"/><path id="Shape" d="m26.63 46.46c.7714606.7199364 1.9685394.7199364 2.74 0l.13-.123c-21.182-19.969-20.252-18.949-21.02-19.947-7.99-9.49-1.342-23.273 11.02-24.32-.5-.043-1-.07-1.493-.07-13.317 0-20.837 14.52-12.527 24.39.77 1-.17-.03 21.15 20.07z" fill="#fff"/><path id="Shape" d="m11.9 31.229-1.368 1.458-2.916-2.741-1.457-1.381-.735-.717c-.26549657-.2645158-.51147417-.5479247-.736-.848l1.584-1.22c.17376279.2349972.3656843.4560079.574.661l.7.68 1.446 1.37z" fill="#fff"/><g fill="#29c5ff"><path id="Shape" d="m8.322 30.219c-.55228473.0027614-1.00223852-.4427153-1.00499994-.995-.00276143-.5522847.44271521-1.0022385.99499994-1.005h.01c.55228473 0 .99999994.4477153.99999994 1s-.44771521 1-.99999994 1z"/><path id="Shape" d="m6.124 27.155c.42248749-.3556767.47666027-.9864986.121-1.409-3.45007345-3.9410456-4.22528655-9.5566232-1.972-14.285 2.51801036-5.27516106 7.8930175-8.58577733 13.737-8.461 3.3820175-.01696949 6.6777984 1.06653163 9.39 3.087.3571751.27068758.8508249.27068758 1.208 0 2.7100113-2.01881952 6.0027158-3.10223232 9.382-3.087 5.8439825-.12477733 11.2189896 3.18583894 13.737 8.461 2.254181 4.7425476 1.4676874 10.3718752-2 14.315l-.077.1c-.2983675.3806886-.6300078.7340813-.991 1.056l-3.57-7.588c-.3741384-.8189004-1.1916793-1.3442092-2.092-1.3442092s-1.7178616.5253088-2.092 1.3442092l-4.221 8.973c-.043373.0999358-.133799.1716012-.241.191l-9.467 1.444c-.8650378.134751-1.5811441.7438085-1.853 1.576-.289884.8513076-.0760412 1.793299.553 2.436l6.874 7.031c.0841567.0913462.1211056.216603.1.339l-.128.782-3.839 3.614c-.3868698.3609856-.9871302.3609856-1.374 0l-15.409-14.501c-.4030153-.3751439-1.0334647-.3539296-1.4103501.0474576-.3768855.4013871-.3584013 1.0319224.0413501 1.4105424l15.412 14.5c1.1571034 1.0781715 2.9508966 1.0781715 4.108 0l1.949-1.825-.961 5.879c-.1563841.8987727.2174357 1.8074544.961 2.336.7142081.5091125 1.657676.5616572 2.424.135l8.434-4.652c.0856101-.0484922.1903899-.0484922.276 0l8.434 4.652c.7683381.4300597 1.7159809.3774561 2.432-.135.7471297-.5262105 1.1249788-1.4352277.971-2.336l-1.62-9.907c-.0214316-.122722.0155392-.2484228.1-.34l6.874-7.032c.6290791-.6422709.8429531-1.5840125.553-2.435-.2718559-.8321915-.9879622-1.441249-1.853-1.576l-9.162-1.4c.4996802-.4427367.9597597-.9282461 1.375-1.451l.046-.062c3.9635551-4.5317058 4.8505058-10.9872597 2.256-16.42-2.8420055-5.98400836-8.9266638-9.74749672-15.55-9.618-3.5618085-.01088554-7.0438554 1.05429316-9.99 3.056-2.9461446-2.00170684-6.4281915-3.06688554-9.99-3.056-6.6236254-.12963808-12.70864751 3.63383325-15.551 9.618-2.59218831 5.431763-1.70535773 11.8848706 2.256 16.416.35567674.4224875.98649864.4766603 1.409.121zm52.854 5.006c.0491871.1388743.0159182.2936134-.086.4l-6.875 7.039c-.5291487.5453644-.7687668 1.3091007-.646 2.059l1.62 9.908c.0309483.1448539-.0272319.2942356-.148.38-.0878485.0693241-.2096072.0765098-.305.018l-8.438-4.656c-.6862667-.3826421-1.5217333-.3826421-2.208 0l-8.434 4.652c-.0955395.0579212-.2169365.0507568-.305-.018-.1203385-.0860988-.1784058-.2351903-.148-.38l1.619-9.908c.1230985-.7502261-.1165436-1.51441-.646-2.06l-6.873-7.03c-.1020548-.1062884-.1356882-.260925-.087-.4.0343853-.1206024.1345288-.2110421.258-.233l9.468-1.443c.7696144-.1184929 1.4288114-.6143923 1.756-1.321l4.22-8.974c.152-.32.414-.32.566 0l4.22 8.973c.3265327.7040881.9831198 1.1985919 1.75 1.318l9.467 1.443c.1225429.0225526.2215123.1129835.255.233z"/><path id="Shape" d="m14 7.6c.1017765-.00071464.2028814-.01655441.3-.047 1.2009267-.37377636 2.4522717-.56029759 3.71-.553.5522847 0 1-.44771525 1-1s-.4477153-1-1-1c-1.4619043-.00634486-2.9161376.21152032-4.312.646-.4714137.14814355-.7639433.61839877-.6884673 1.10674367s.4963254.84834399.9904673.84725633z"/><path id="Shape" d="m9.727 10.477c.24597736-.2597321.3347044-.63096179.23275849-.97385047-.1019459-.34288868-.37907674-.6053434-.727-.6885s-.71378113.02561839-.95975849.28535047c-.89580349.9454397-1.63508849 2.0276989-2.19 3.206-1.90464532 4.0117142-1.24875999 8.7710066 1.67 12.118l.18.23c.22043287.281168.57412259.4233784.92783767.373062.35371509-.0503165.65371779-.2855155.787-.617.13328222-.3314845.0795952-.708894-.14083767-.990062l-.2-.256c-2.42059536-2.7583351-2.97331291-6.6902113-1.407-10.009.46234111-.9843563 1.07912955-1.8884391 1.827-2.678z"/></g></g></g></svg>